<?xml version="1.0" standalone="no"?><svg xmlns="http://www.w3.org/2000/svg" viewBox="0 0 1440 320"><path fill="black" fill-opacity="1" d="M0,64L10.9,58.7C21.8,53,44,43,65,74.7C87.3,107,109,181,131,192C152.7,203,175,149,196,128C218.2,107,240,117,262,106.7C283.6,96,305,64,327,69.3C349.1,75,371,117,393,122.7C414.5,128,436,96,458,101.3C480,107,502,149,524,181.3C545.5,213,567,235,589,245.3C610.9,256,633,256,655,240C676.4,224,698,192,720,165.3C741.8,139,764,117,785,128C807.3,139,829,181,851,197.3C872.7,213,895,203,916,213.3C938.2,224,960,256,982,245.3C1003.6,235,1025,181,1047,160C1069.1,139,1091,149,1113,165.3C1134.5,181,1156,203,1178,186.7C1200,171,1222,117,1244,117.3C1265.5,117,1287,171,1309,181.3C1330.9,192,1353,160,1375,122.7C1396.4,85,1418,43,1429,21.3L1440,0L1440,0L1429.1,0C1418.2,0,1396,0,1375,0C1352.7,0,1331,0,1309,0C1287.3,0,1265,0,1244,0C1221.8,0,1200,0,1178,0C1156.4,0,1135,0,1113,0C1090.9,0,1069,0,1047,0C1025.5,0,1004,0,982,0C960,0,938,0,916,0C894.5,0,873,0,851,0C829.1,0,807,0,785,0C763.6,0,742,0,720,0C698.2,0,676,0,655,0C632.7,0,611,0,589,0C567.3,0,545,0,524,0C501.8,0,480,0,458,0C436.4,0,415,0,393,0C370.9,0,349,0,327,0C305.5,0,284,0,262,0C240,0,218,0,196,0C174.5,0,153,0,131,0C109.1,0,87,0,65,0C43.6,0,22,0,11,0L0,0Z"></path></svg>